<?xml version="1.0" standalone="no"?><!-- Generator: Gravit.io --><svg xmlns="http://www.w3.org/2000/svg" xmlns:xlink="http://www.w3.org/1999/xlink" style="isolation:isolate" viewBox="0 -0.645 100 101.291" width="100" height="101.291"><path d=" M 90.98 68.458 L 64.439 68.458 L 37.899 68.458 L 51.169 91.443 L 90.98 68.458 Z " fill="rgb(255,255,255)" vector-effect="non-scaling-stroke" stroke-width="3.117" stroke="rgb(75,133,249)" stroke-linejoin="miter" stroke-linecap="square" stroke-miterlimit="3"/><path d=" M 9.02 30.365 L 35.561 30.365 L 62.101 30.365 L 48.831 7.38 L 9.02 30.365 Z " fill="rgb(255,255,255)" vector-effect="non-scaling-stroke" stroke-width="3.117" stroke="rgb(75,133,249)" stroke-linejoin="miter" stroke-linecap="square" stroke-miterlimit="3"/><path d=" M 37.899 30.365 L 11.358 30.365 L 11.358 76.334 L 24.628 53.349 L 37.899 30.365 Z " fill="rgb(255,255,255)" vector-effect="non-scaling-stroke" stroke-width="3.117" stroke="rgb(75,133,249)" stroke-linejoin="miter" stroke-linecap="square" stroke-miterlimit="3"/><path d=" M 87.991 22.489 L 74.721 45.473 L 61.451 68.458 L 87.991 68.458 L 87.991 22.489 Z " fill="rgb(255,255,255)" vector-effect="non-scaling-stroke" stroke-width="3.117" stroke="rgb(75,133,249)" stroke-linejoin="miter" stroke-linecap="square" stroke-miterlimit="3"/><path d=" M 44.534 4.031 L 57.804 27.015 L 71.074 50 L 84.345 27.015 L 44.534 4.031 Z " fill="rgb(255,255,255)" vector-effect="non-scaling-stroke" stroke-width="3.117" stroke="rgb(75,133,249)" stroke-linejoin="miter" stroke-linecap="square" stroke-miterlimit="3"/><path d=" M 26.902 50 L 13.632 72.985 L 53.443 95.969 L 40.172 72.985 L 26.902 50 Z " fill="rgb(255,255,255)" vector-effect="non-scaling-stroke" stroke-width="3.117" stroke="rgb(75,133,249)" stroke-linejoin="miter" stroke-linecap="square" stroke-miterlimit="3"/></svg>